<?xml version="1.0" encoding="UTF-8"?><svg id="a" xmlns="http://www.w3.org/2000/svg" viewBox="0 0 400 400"><defs><style>.b{fill:#9a98cb;}</style></defs><path class="b" d="M200,399.5C89.99,399.5,.5,310.01,.5,200S89.99,.5,200,.5s199.5,89.49,199.5,199.5-89.49,199.5-199.5,199.5Zm0-376.42C102.45,23.08,23.09,102.45,23.09,200s79.36,176.92,176.92,176.92,176.91-79.36,176.91-176.92S297.55,23.08,200,23.08Z"/><g><path class="b" d="M313.96,285.72H86.04V114.28h227.92v171.45Zm-205.33-22.59h182.75v-126.28H108.63v126.28Z"/><polygon class="b" points="200 239.55 89.52 133.72 105.15 117.42 200 208.27 294.86 117.42 310.48 133.72 200 239.55"/></g></svg>