<?xml version="1.0" encoding="UTF-8"?><svg id="a" xmlns="http://www.w3.org/2000/svg" viewBox="0 0 400 400"><defs><style>.c{fill:#9a98cb;}</style></defs><path class="c" d="M200,399.5C89.99,399.5,.5,310.01,.5,200S89.99,.5,200,.5s199.5,89.49,199.5,199.5-89.49,199.5-199.5,199.5Zm0-376.42C102.45,23.08,23.08,102.45,23.08,200s79.36,176.92,176.92,176.92,176.92-79.36,176.92-176.92S297.55,23.08,200,23.08Z"/><g id="b"><path class="c" d="M227.37,266.46c7.85-1.81,15.44-3.14,22.77-5.34,24.36-7.33,37.97-24.21,42.09-48.96,2.08-12.49,2.72-25.03-1.03-37.4-2.16-7.12-5.57-13.58-10.42-19.21-1.46-1.69-1.83-3.06-1.16-5.27,3.51-11.59,2.4-23.05-1.65-34.28-.4-1.12-2.4-2.56-3.45-2.41-4.92,.7-10.07,1.19-14.57,3.09-7.15,3.02-13.81,7.18-20.77,10.66-1.49,.74-3.53,1.23-5.09,.86-22.63-5.41-45.22-5.41-67.87-.06-1.66,.39-3.94,0-5.39-.89-9.76-6.01-19.62-11.7-31.18-13.51-6.25-.98-6.92-.63-8.64,5.35-3.06,10.63-3.6,21.3-.38,32.04,.3,1.01,.05,2.62-.6,3.4-13.19,15.66-15.44,33.91-12.84,53.34,1.66,12.43,5.24,24.12,13.17,34.11,10.03,12.64,23.81,18.65,39.12,21.84,4.27,.89,8.61,1.49,13.33,2.3-4.92,5.32-7.38,11.36-8.65,18-.19,.97-1.38,2.09-2.37,2.51-16.29,7-30.92,2.3-40.39-12.85-4.89-7.83-11.35-13.58-20.74-15.22-1.78-.31-3.74-.19-5.51,.2-3.75,.8-4.23,2.77-1.47,5.55,.98,.99,2.05,1.95,3.24,2.64,7.39,4.3,12.68,10.73,15.27,18.54,5.69,17.12,22.45,24.49,40.4,22.76,3.45-.33,6.87-.83,10.85-1.32,0,9.59,.25,18.9-.1,28.19-.19,5.2-5.11,7.58-10.79,5.66-12.76-4.32-24.8-10.2-35.7-18.11-43.51-31.55-65.06-74.4-63.59-128.02,1.9-69,53.1-127.6,120.99-139.81,78.95-14.21,154.82,38.33,169.9,117.65,13.74,72.23-26.86,143.55-95.57,167.86-8.21,2.9-12.27,0-12.23-8.75,.06-12.24,.11-24.48,.21-36.72,.08-10.51-1.61-20.43-9.19-28.39Z"/></g></svg>