<?xml version="1.0" encoding="UTF-8"?><svg id="a" xmlns="http://www.w3.org/2000/svg" viewBox="0 0 400 400"><defs><style>.c{fill:#9a98cb;}</style></defs><path class="c" d="M200,399.5C89.99,399.5,.5,310.01,.5,200S89.99,.5,200,.5s199.5,89.49,199.5,199.5-89.49,199.5-199.5,199.5Zm0-376.42C102.45,23.08,23.08,102.45,23.08,200s79.36,176.92,176.92,176.92,176.92-79.36,176.92-176.92S297.55,23.08,200,23.08Z"/><g id="b"><g><path class="c" d="M298.12,295.12h-43.62v-1.12c0-23.31,0-46.61,0-69.92,0-4.45-.35-8.87-1.43-13.2-.77-3.1-1.96-6.02-3.95-8.57-2.59-3.32-6.06-5.13-10.14-5.81-3.79-.63-7.57-.49-11.24,.75-4.95,1.66-8.63,4.9-11.36,9.28-1.85,2.96-3.31,6.08-3.67,9.61-.15,1.43-.26,2.87-.26,4.31-.02,24.48-.01,48.97-.01,73.45v1.21h-43.94V165.71h43.77v17.84l.31,.05c.88-1.26,1.74-2.53,2.65-3.77,4.08-5.58,9.06-10.09,15.38-13.01,3.62-1.67,7.41-2.71,11.35-3.28,4.33-.63,8.68-.71,13.03-.32,9.14,.82,17.55,3.65,24.79,9.44,5.84,4.67,10.02,10.6,12.94,17.45,2.6,6.09,4.16,12.45,4.76,19.02,.35,3.78,.61,7.58,.61,11.36,.05,24.45,.03,48.91,.03,73.36v1.26Z"/><path class="c" d="M104.79,165.69h43.15v129.42h-43.15V165.69Z"/><path class="c" d="M125.32,148.85c-5.19-.23-10.05-1.33-14.34-4.33-5.18-3.62-8.12-8.61-8.9-14.86-.57-4.51,.05-8.85,2.14-12.91,2.71-5.26,7-8.71,12.59-10.44,6.76-2.09,13.51-1.98,20.04,.94,5.3,2.36,8.95,6.36,10.91,11.82,2.02,5.62,2,11.24-.46,16.71-2.92,6.51-8.1,10.37-14.94,12.02-2.3,.55-4.69,.71-7.04,1.05Z"/></g></g></svg>